<svg xmlns="http://www.w3.org/2000/svg" xmlns:xlink="http://www.w3.org/1999/xlink" width="1080" zoomAndPan="magnify" viewBox="0 0 810 809.999993" height="1080" preserveAspectRatio="xMidYMid meet" version="1.0"><path fill="#323338" d="M 162.464844 583.542969 C 169.066406 583.542969 174.34375 585.554688 178.179688 589.578125 C 182.136719 593.601562 184.085938 599.132812 184.085938 606.234375 L 184.085938 637.285156 L 167.871094 637.285156 L 167.871094 608.433594 C 167.871094 604.976562 166.929688 602.339844 165.105469 600.515625 C 163.347656 598.628906 160.832031 597.6875 157.691406 597.6875 C 154.484375 597.6875 152.035156 598.628906 150.148438 600.515625 C 148.386719 602.339844 147.507812 604.976562 147.507812 608.433594 L 147.507812 637.285156 L 131.292969 637.285156 L 131.292969 608.433594 C 131.292969 604.976562 130.351562 602.339844 128.527344 600.515625 C 126.769531 598.628906 124.253906 597.6875 121.113281 597.6875 C 117.96875 597.6875 115.457031 598.628906 113.570312 600.515625 C 111.808594 602.339844 110.929688 604.976562 110.929688 608.433594 L 110.929688 637.285156 L 94.589844 637.285156 L 94.589844 584.109375 L 110.867188 584.109375 L 110.867188 590.773438 C 112.5 588.574219 114.703125 586.8125 117.339844 585.554688 C 119.980469 584.234375 122.996094 583.542969 126.390625 583.542969 C 130.414062 583.542969 133.933594 584.425781 137.074219 586.121094 C 140.28125 587.816406 142.730469 590.269531 144.492188 593.476562 C 146.3125 590.519531 148.828125 588.195312 152.035156 586.308594 C 155.238281 584.488281 158.695312 583.542969 162.464844 583.542969 Z M 216.832031 638.105469 C 211.613281 638.105469 206.898438 636.972656 202.753906 634.773438 C 198.605469 632.574219 195.335938 629.367188 192.949219 625.21875 C 190.621094 621.070312 189.429688 616.230469 189.429688 610.761719 C 189.429688 605.292969 190.621094 600.515625 193.074219 596.367188 C 195.460938 592.15625 198.792969 588.949219 203.003906 586.75 C 207.214844 584.550781 211.929688 583.417969 217.082031 583.417969 C 222.296875 583.417969 227.011719 584.550781 231.160156 586.75 C 235.371094 588.949219 238.640625 592.15625 241.089844 596.367188 C 243.476562 600.515625 244.734375 605.292969 244.734375 610.761719 C 244.734375 616.230469 243.476562 621.070312 241.027344 625.21875 C 238.640625 629.367188 235.308594 632.507812 231.035156 634.773438 C 226.761719 636.972656 222.046875 638.105469 216.832031 638.105469 Z M 216.832031 623.960938 C 219.972656 623.960938 222.550781 622.828125 224.75 620.503906 C 226.949219 618.242188 228.082031 614.972656 228.082031 610.699219 C 228.082031 606.425781 227.011719 603.15625 224.8125 600.894531 C 222.738281 598.628906 220.097656 597.433594 217.019531 597.433594 C 213.8125 597.433594 211.175781 598.566406 209.101562 600.894531 C 207.027344 603.09375 205.957031 606.359375 205.957031 610.699219 C 205.957031 614.972656 206.964844 618.242188 209.039062 620.503906 C 211.109375 622.828125 213.75 623.960938 216.832031 623.960938 Z M 282.882812 583.542969 C 289.105469 583.542969 294.070312 585.554688 297.78125 589.640625 C 301.550781 593.664062 303.375 599.195312 303.375 606.234375 L 303.375 637.285156 L 287.160156 637.285156 L 287.160156 608.433594 C 287.160156 604.851562 286.214844 602.085938 284.394531 600.136719 C 282.570312 598.191406 280.054688 597.183594 276.976562 597.183594 C 273.835938 597.183594 271.382812 598.191406 269.5625 600.136719 C 267.738281 602.085938 266.730469 604.851562 266.730469 608.433594 L 266.730469 637.285156 L 250.453125 637.285156 L 250.453125 584.109375 L 266.730469 584.109375 L 266.730469 591.148438 C 268.367188 588.824219 270.628906 586.9375 273.394531 585.617188 C 276.222656 584.234375 279.363281 583.542969 282.882812 583.542969 Z M 308.589844 610.636719 C 308.589844 605.167969 309.59375 600.390625 311.667969 596.242188 C 313.742188 592.09375 316.570312 588.949219 320.152344 586.6875 C 323.734375 584.488281 327.695312 583.355469 332.09375 583.355469 C 335.613281 583.355469 338.757812 584.109375 341.648438 585.554688 C 344.601562 587 346.863281 589.011719 348.5 591.464844 L 348.5 566.761719 L 364.777344 566.761719 L 364.777344 637.285156 L 348.4375 637.285156 L 348.4375 629.679688 C 346.925781 632.195312 344.726562 634.269531 341.835938 635.777344 C 339.070312 637.285156 335.742188 638.042969 332.03125 638.042969 C 327.632812 638.042969 323.671875 636.910156 320.089844 634.710938 C 316.507812 632.445312 313.679688 629.242188 311.605469 625.09375 C 309.59375 620.945312 308.589844 616.105469 308.589844 610.636719 Z M 348.4375 610.699219 C 348.4375 606.613281 347.304688 603.40625 344.980469 601.082031 C 342.78125 598.753906 340.015625 597.5625 336.808594 597.5625 C 333.539062 597.5625 330.773438 598.753906 328.511719 601.082031 C 326.3125 603.34375 325.183594 606.550781 325.183594 610.636719 C 325.183594 614.722656 326.3125 617.925781 328.511719 620.378906 C 330.773438 622.703125 333.539062 623.898438 336.808594 623.898438 C 340.078125 623.898438 342.78125 622.703125 344.980469 620.378906 C 347.242188 617.988281 348.4375 614.785156 348.4375 610.699219 Z M 370.433594 610.636719 C 370.433594 605.167969 371.4375 600.390625 373.511719 596.242188 C 375.585938 592.09375 378.414062 588.949219 381.996094 586.6875 C 385.578125 584.488281 389.539062 583.355469 393.9375 583.355469 C 397.710938 583.355469 400.976562 584.109375 403.742188 585.617188 C 406.570312 587.125 408.769531 589.136719 410.34375 591.652344 L 410.34375 584.109375 L 426.621094 584.109375 L 426.621094 637.285156 L 410.34375 637.285156 L 410.34375 629.742188 C 408.769531 632.195312 406.507812 634.207031 403.679688 635.777344 C 400.914062 637.285156 397.582031 638.042969 393.875 638.042969 C 389.539062 638.042969 385.640625 636.910156 382.058594 634.710938 C 378.476562 632.445312 375.648438 629.242188 373.574219 625.09375 C 371.4375 620.945312 370.433594 616.105469 370.433594 610.636719 Z M 410.214844 610.699219 C 410.214844 606.613281 409.085938 603.40625 406.757812 601.082031 C 404.558594 598.753906 401.792969 597.5625 398.589844 597.5625 C 395.320312 597.5625 392.554688 598.753906 390.292969 601.082031 C 388.09375 603.34375 386.960938 606.550781 386.960938 610.636719 C 386.960938 614.722656 388.09375 617.925781 390.292969 620.378906 C 392.554688 622.703125 395.320312 623.898438 398.589844 623.898438 C 401.855469 623.898438 404.558594 622.703125 406.757812 620.378906 C 409.085938 617.988281 410.214844 614.785156 410.214844 610.699219 Z M 489.78125 584.109375 L 456.410156 662.554688 L 438.875 662.554688 L 451.066406 635.464844 L 429.449219 584.109375 L 447.675781 584.109375 L 459.992188 617.359375 L 472.183594 584.109375 Z M 500.46875 638.105469 C 497.640625 638.105469 495.25 637.285156 493.429688 635.652344 C 491.667969 633.957031 490.789062 631.816406 490.789062 629.367188 C 490.789062 626.851562 491.667969 624.714844 493.429688 622.957031 C 495.25 621.257812 497.640625 620.378906 500.46875 620.378906 C 503.230469 620.378906 505.558594 621.257812 507.316406 622.957031 C 509.140625 624.652344 510.082031 626.789062 510.082031 629.367188 C 510.082031 631.816406 509.140625 633.957031 507.316406 635.652344 C 505.558594 637.222656 503.230469 638.105469 500.46875 638.105469 Z M 515.046875 611.074219 C 515.046875 605.667969 516.117188 600.957031 518.316406 596.996094 C 520.453125 592.910156 523.46875 589.765625 527.304688 587.566406 C 531.199219 585.367188 535.597656 584.234375 540.5625 584.234375 C 546.976562 584.234375 552.253906 585.808594 556.402344 588.886719 C 560.613281 592.03125 563.378906 596.304688 564.699219 601.835938 L 555.332031 601.835938 C 554.453125 598.628906 552.695312 596.179688 550.117188 594.292969 C 547.601562 592.46875 544.398438 591.527344 540.5625 591.527344 C 535.597656 591.527344 531.578125 593.222656 528.558594 596.679688 C 525.480469 600.074219 523.972656 604.851562 523.972656 611.074219 C 523.972656 617.359375 525.480469 622.199219 528.558594 625.660156 C 531.640625 629.117188 535.597656 630.8125 540.5625 630.8125 C 544.398438 630.8125 547.539062 629.933594 550.117188 628.171875 C 552.632812 626.414062 554.390625 623.835938 555.332031 620.566406 L 564.699219 620.566406 C 563.316406 625.910156 560.488281 630.183594 556.339844 633.453125 C 552.128906 636.660156 546.914062 638.230469 540.628906 638.230469 C 535.664062 638.230469 531.261719 637.097656 527.367188 634.898438 C 523.53125 632.699219 520.578125 629.554688 518.378906 625.46875 C 516.117188 621.320312 515.046875 616.542969 515.046875 611.074219 Z M 596.121094 638.167969 C 591.21875 638.167969 586.757812 637.035156 582.796875 634.835938 C 578.839844 632.636719 575.757812 629.492188 573.433594 625.40625 C 571.234375 621.257812 570.101562 616.480469 570.101562 611.136719 C 570.101562 605.796875 571.234375 601.082031 573.558594 597.058594 C 575.886719 592.910156 579.089844 589.765625 583.113281 587.628906 C 587.136719 585.429688 591.597656 584.296875 596.5625 584.296875 C 601.527344 584.296875 605.988281 585.429688 610.011719 587.628906 C 614.035156 589.765625 617.175781 592.910156 619.441406 596.996094 C 621.765625 601.082031 622.960938 605.796875 622.960938 611.199219 C 622.960938 616.605469 621.765625 621.382812 619.3125 625.46875 C 616.988281 629.554688 613.785156 632.699219 609.699219 634.898438 C 605.550781 637.035156 601.085938 638.167969 596.121094 638.167969 Z M 596.121094 630.5625 C 599.265625 630.5625 602.15625 629.808594 604.859375 628.359375 C 607.5625 626.914062 609.761719 624.714844 611.457031 621.761719 C 613.15625 618.871094 614.035156 615.285156 614.035156 611.074219 C 614.035156 606.863281 613.21875 603.34375 611.582031 600.390625 C 609.949219 597.433594 607.75 595.296875 605.109375 593.914062 C 602.46875 592.46875 599.578125 591.714844 596.4375 591.714844 C 593.230469 591.714844 590.339844 592.46875 587.699219 593.914062 C 585.125 595.296875 582.988281 597.5 581.417969 600.390625 C 579.84375 603.28125 579.027344 606.863281 579.027344 611.074219 C 579.027344 615.351562 579.78125 618.933594 581.289062 621.824219 C 582.863281 624.777344 585 626.914062 587.574219 628.425781 C 590.152344 629.871094 592.980469 630.5625 596.121094 630.5625 Z M 694.230469 584.109375 C 698.316406 584.109375 701.898438 584.988281 705.101562 586.6875 C 708.308594 588.320312 710.757812 590.835938 712.644531 594.230469 C 714.46875 597.625 715.410156 601.710938 715.410156 606.550781 L 715.410156 637.351562 L 706.800781 637.351562 L 706.800781 607.808594 C 706.800781 602.589844 705.480469 598.628906 702.902344 595.863281 C 700.390625 593.097656 696.871094 591.652344 692.53125 591.652344 C 688.007812 591.652344 684.425781 593.097656 681.785156 596.050781 C 679.144531 598.945312 677.761719 603.09375 677.761719 608.5625 L 677.761719 637.351562 L 669.152344 637.351562 L 669.152344 607.808594 C 669.152344 602.589844 667.832031 598.628906 665.257812 595.863281 C 662.742188 593.097656 659.222656 591.652344 654.886719 591.652344 C 650.359375 591.652344 646.777344 593.097656 644.140625 596.050781 C 641.4375 598.945312 640.117188 603.09375 640.117188 608.5625 L 640.117188 637.351562 L 631.445312 637.351562 L 631.445312 585.117188 L 640.117188 585.117188 L 640.117188 592.660156 C 641.8125 589.957031 644.140625 587.816406 646.96875 586.371094 C 649.921875 584.925781 653.125 584.171875 656.582031 584.171875 C 660.984375 584.171875 664.816406 585.179688 668.210938 587.125 C 671.605469 589.074219 674.117188 591.96875 675.753906 595.800781 C 677.199219 592.09375 679.648438 589.265625 682.980469 587.253906 C 686.375 585.117188 690.144531 584.109375 694.230469 584.109375 Z M 694.230469 584.109375 " fill-opacity="1" fill-rule="nonzero"/><path fill="#fb275d" d="M 172.082031 505.285156 C 158.945312 505.160156 146.125 501.515625 134.8125 494.789062 C 123.5625 488.0625 114.261719 478.445312 107.914062 466.945312 C 101.691406 455.503906 98.613281 442.554688 99.113281 429.542969 C 99.617188 416.53125 103.640625 403.835938 110.679688 392.898438 L 245.929688 184.085938 C 252.78125 172.898438 262.523438 163.722656 274.148438 157.5625 C 285.710938 151.339844 298.785156 148.382812 311.859375 148.886719 C 324.992188 149.390625 337.75 153.351562 348.8125 160.390625 C 359.875 167.429688 368.925781 177.296875 374.894531 188.988281 C 380.867188 200.617188 383.566406 213.628906 382.75 226.640625 C 381.933594 239.652344 377.535156 252.222656 370.179688 262.972656 L 235.183594 471.660156 C 228.332031 482.15625 218.96875 490.703125 207.96875 496.613281 C 196.90625 502.457031 184.589844 505.476562 172.082031 505.285156 Z M 172.082031 505.285156 " fill-opacity="1" fill-rule="nonzero"/><path fill="#ffcc00" d="M 398.902344 503.148438 C 385.769531 502.898438 372.945312 499.125 361.757812 492.210938 C 350.574219 485.359375 341.398438 475.617188 335.238281 463.988281 C 329.140625 452.488281 326.25 439.476562 326.878906 426.464844 C 327.507812 413.453125 331.65625 400.816406 338.882812 389.945312 L 476.457031 182.894531 C 483.371094 171.578125 493.175781 162.339844 504.929688 156.117188 C 516.617188 149.894531 529.816406 146.9375 543.015625 147.566406 C 556.277344 148.195312 569.097656 152.28125 580.160156 159.574219 C 591.285156 166.800781 600.207031 176.921875 606.117188 188.800781 C 611.898438 200.617188 614.347656 213.816406 613.21875 226.957031 C 612.085938 240.09375 607.433594 252.664062 599.640625 263.351562 L 462.128906 470.339844 C 455.214844 480.710938 445.789062 489.132812 434.726562 494.851562 C 423.730469 500.574219 411.347656 503.464844 398.902344 503.148438 Z M 398.902344 503.148438 " fill-opacity="1" fill-rule="nonzero"/><path fill="#00cc6f" d="M 637.414062 503.839844 C 678.203125 503.589844 711.136719 471.46875 710.882812 431.996094 C 710.632812 392.519531 677.386719 360.777344 636.597656 361.03125 C 595.808594 361.28125 562.875 393.402344 563.128906 432.875 C 563.316406 472.285156 596.625 504.09375 637.414062 503.839844 Z M 637.414062 503.839844 " fill-opacity="1" fill-rule="nonzero"/></svg>